<svg width="500" height="500" viewBox="0 0 500 500" fill="none" xmlns="http://www.w3.org/2000/svg">
<path d="M62.5 395.836V209.801C62.5 195.87 69.4625 182.86 81.0542 175.133L226.887 77.9105C240.883 68.58 259.117 68.58 273.113 77.9105L418.946 175.133C430.537 182.86 437.5 195.87 437.5 209.801V395.836M62.5 395.836C62.5 418.847 81.1548 437.502 104.167 437.502H395.833C418.845 437.502 437.5 418.847 437.5 395.836M62.5 395.836L203.125 302.086M437.5 395.836L296.875 302.086M62.5 208.336L203.125 302.086M437.5 208.336L296.875 302.086M296.875 302.086L273.113 317.927C259.117 327.258 240.883 327.258 226.887 317.927L203.125 302.086" stroke="#111827" stroke-width="10" stroke-linecap="round" stroke-linejoin="round"/>
</svg>
